<svg width="75" height="54" viewBox="0 0 75 54" fill="none" xmlns="http://www.w3.org/2000/svg">
<g clip-path="url(#clip0_95_1063)">
<path d="M33.8866 6.26416L21.3024 19.1913V19.1915L0.0020752 41.073L12.586 54.0004L33.8866 32.1189L55.1872 54.0004L67.7714 41.073L46.4708 19.1915L33.8868 6.26416H33.8866Z" fill="#458DBE"/>
<path d="M68.7471 37.7372L69.7427 38.76L74.9979 33.3616L74.0022 32.3387L68.7471 37.7372ZM63.983 32.843L64.9787 33.8658L67.9106 32.218L66.258 35.18L67.2397 36.1885L71.9971 33.6457L71.036 32.6583L67.9175 34.4554L69.7153 31.3016L68.8926 30.4564L65.7603 32.2394L67.551 29.0785L66.5 27.9989L63.983 32.8432V32.843ZM60.8714 29.8029C61.9569 30.9181 63.5059 31.0175 64.6466 29.8455L64.7019 29.7886C65.8289 28.6309 65.739 27.047 64.6534 25.9316C63.5679 24.8164 62.0049 24.7311 60.8711 25.8961L60.8158 25.953C59.6888 27.1109 59.7924 28.6948 60.8711 29.8032M61.6387 29.029C61.0717 28.4465 61.1685 27.6936 61.8599 26.9831L61.9153 26.9262C62.6067 26.2159 63.3398 26.1449 63.8929 26.7131C64.4528 27.2885 64.3632 28.0484 63.6715 28.7587L63.623 28.8086C62.9384 29.5118 62.1984 29.6042 61.6385 29.029M59.0108 21.7552L60.2762 20.4554L60.94 21.1373C61.4656 21.6772 61.5138 22.1105 61.0992 22.5365L61.0715 22.5649C60.6289 23.0196 60.2208 22.9982 59.6817 22.4442L59.0108 21.7552ZM56.874 23.9503L58.2917 22.494L59.004 23.2257C59.6126 23.8509 59.6264 24.3481 59.1698 24.8166L59.1421 24.8451C58.6927 25.3068 58.1947 25.3068 57.6414 24.7386L56.8738 23.9501L56.874 23.9503ZM55.0071 23.6235L57.0401 25.7119C58.181 26.8837 59.2528 27.0047 60.1586 26.074L60.1863 26.0455C60.8501 25.3637 60.8709 24.6322 60.359 23.8366C61.0712 24.2414 61.7005 24.1063 62.219 23.5737L62.2465 23.5452C63.09 22.6787 62.9727 21.6485 61.894 20.5404L59.9511 18.5443L55.0071 23.6235ZM52.2966 20.8391L53.2994 21.8689L55.1112 20.0077C55.8026 19.2974 56.4733 19.4892 57.2061 20.2563L58.1396 19.2974C57.5449 18.7006 56.9365 18.6012 56.2242 18.8641L56.9156 18.1538L55.9129 17.124L52.2966 20.8391ZM50.4988 17.7137C50.1323 17.3373 50.1461 16.9961 50.4089 16.7262C50.7961 16.3283 51.2595 16.5488 51.8403 17.1453L52.2275 17.5431L51.9231 17.8557C51.5221 18.2678 50.9414 18.1684 50.4988 17.7137ZM49.5031 18.1256C50.0701 18.7081 50.6095 18.8075 51.1072 18.7222L50.6717 19.1696L51.6468 20.171L54.0046 17.749C54.9863 16.7405 54.7168 15.7245 53.8316 14.8154C52.9467 13.906 51.8888 13.6006 50.9688 14.4176L51.9162 15.3906C52.2689 15.1135 52.6493 15.0922 53.0434 15.4973C53.4997 15.966 53.3959 16.3424 52.9673 16.783L52.822 16.9322L52.4142 16.513C51.3078 15.3765 50.2154 14.9077 49.3716 15.7743C48.611 16.5556 48.8459 17.4506 49.5031 18.1256ZM46.9793 13.5017C46.4813 12.9901 46.5021 12.2443 47.1037 11.6261L47.159 11.5693C47.7538 10.9583 48.4658 10.866 49.026 11.4414C49.5722 12.0025 49.5237 12.7201 48.9084 13.3522L48.8599 13.402C48.2444 14.0341 47.5047 14.0414 46.979 13.5014M44.6832 15.7602C45.8727 16.982 47.1311 17.1526 48.2096 16.0586L51.5425 12.6349L50.5468 11.612L50.0074 12.1661C50.1664 11.5765 50.0697 10.9515 49.4818 10.3477C48.5829 9.42446 47.1654 9.4597 46.1281 10.5253L46.0796 10.5751C45.008 11.6759 45.0494 13.0684 45.9275 13.9704C46.46 14.5174 47.2068 14.6309 47.7599 14.4747L47.2137 15.036C46.6467 15.6185 46.0243 15.6326 45.4159 15.0076C44.9042 14.482 44.8834 14.0343 45.1393 13.6438L44.1437 12.621C43.4936 13.4876 43.5144 14.5602 44.683 15.7604M41.516 9.92166C42.1107 10.5326 42.7536 10.6249 43.3067 10.44L42.7397 11.0225L43.7354 12.0453L47.3518 8.33043L46.3562 7.30761L44.2333 9.48837C43.7008 10.0354 43.1061 9.96443 42.6843 9.5309C42.2557 9.09057 42.2902 8.64295 42.7811 8.1387L44.973 5.88698L43.9774 4.86415L41.6473 7.25804C40.6998 8.23129 40.8108 9.19725 41.516 9.92166ZM37.9477 6.25635C39.1163 7.45682 40.5338 7.4782 41.4119 6.57591C42.4355 5.52465 42.145 4.55869 41.1008 3.17354C40.4507 2.27854 40.4576 1.94464 40.8103 1.58256C41.1422 1.24162 41.6193 1.263 42.1102 1.76725C42.6011 2.27149 42.6564 2.75459 42.276 3.28727L43.3065 4.34557C44.1983 3.24474 44.0462 2.06542 42.9329 0.92182C41.8403 -0.200638 40.5059 -0.278644 39.6623 0.587926C38.708 1.56822 38.8464 2.49166 39.9459 3.96186C40.5615 4.82138 40.6305 5.17666 40.2364 5.58152C39.8492 5.97932 39.2545 5.92246 38.7636 5.41821C38.0308 4.66537 38.2103 4.09698 38.6047 3.59273L37.5328 2.4919C36.6062 3.57135 36.5925 4.8644 37.9477 6.2566" fill="#458DBE"/>
</g>
<defs>
<clipPath id="clip0_95_1063">
<rect width="75" height="54" fill="white"/>
</clipPath>
</defs>
</svg>
